<?xml version="1.0" encoding="UTF-8"?>
<svg id="Layer_1" data-name="Layer 1" xmlns="http://www.w3.org/2000/svg" viewBox="0 0 1358.88 349.92">
  <defs>
    <style>
      .cls-1 {
        fill: #c95b26;
      }
    </style>
  </defs>
  <path d="M450.19,287.71c-.82,1.29-7.1-1.94-8.52-2.62-7.11-3.39-15.52-7.4-22.34-11.18-3.12-1.73-5.92-3.12-7.95-6.19-6.7-10.16-9.5-25.96-19.01-33.88-41.53-22.28-85.89-39.83-127.35-62.26-3.61-3.69-6.45-8.17-7-13.43-1.57-15.24-.94-31.66-2.17-47.04-.38-4.8-.69-9.09-3.66-13.09l-23.91-25.35c-.69-.12-4.2,3.64-4.92,4.4-4.85,5.1-20.15,20.1-22.02,25.64-1.44,4.24-1.3,11.95-1.57,16.75-.69,12.47-.36,25.84-1.61,38.17-1.4,13.86-12.59,17.48-23.33,22.76-35.65,17.52-72.09,33.48-107.77,50.94-12.45,7.71-14.73,24.96-22.26,36.39-2.72,4.13-11.34,7.8-15.99,10.2-6.84,3.53-14.03,6.43-20.79,10.15l-1.44-.14c-1.34-.34-.57-2.21-.25-3.16,10.19-18.37,17.72-39.28,27.79-57.55,2.85-5.18,6.02-8.41,11.15-11.37l118.3-56.12c2.83-1.67,5.67-4.57,6.22-7.92,2.73-16.54-.2-38.17,1.15-55.38.32-4.08,1.4-6.55,3.94-9.67,15.3-15.26,29.46-31.65,44.54-47.11,1.49-1.53,5.97-6.56,7.31-7.35.55-.33.83-.6,1.57-.52,1.02.1,6.44,5.85,7.64,7.08,15.16,15.55,29.41,32.03,44.79,47.38,2.97,3.58,4.11,6,4.47,10.72,1.29,17-1.56,38.56,1.15,54.86,1.11,6.69,9.98,9.67,15.41,12.35,32.29,16,65.51,30.28,97.84,46.21,8.35,4.11,17.1,7.29,21.91,15.8,10.36,18.31,17.77,40.15,28.32,58.6l.35,2.93Z"/>
  <path class="cls-1" d="M227.97,108.9c5.18-.07,9.82,4.27,10.99,9.14,1.43,20.22-1.47,42.17.11,62.18.7,8.9,4.62,11.62,11.88,15.35,36.76,18.87,75.04,35.02,111.99,53.53,6.24,3.41,9.21,7.69,12.3,13.88,8.58,17.16,15.14,35.44,23.94,52.52,1.15,4.02-2.69,2.47-4.83,1.68-7.04-2.6-19.48-8.83-26.2-12.56-10.04-5.57-12.16-30.66-24.64-36.11-35.11-16.1-69.5-34.01-104.77-49.76-8.87-3.96-9.41-5.25-18.88-1.21-35.85,15.29-70.89,34.81-106.7,50.45-12.2,7.26-14.45,23.8-22.42,34.66-8.97,4.61-18.59,10.24-27.89,14.01-2.17.88-7.18,3.37-5.88-1.15l24.82-54.78c4.69-8.85,10.35-11.03,18.77-15.27,34.12-17.2,69.56-32.01,103.6-49.35,5.96-3.03,11.62-5.68,12.38-13.28,1.97-19.59-1.97-42.61.07-62.22.65-6.3,4.57-11.61,11.35-11.7Z"/>
  <path class="cls-1" d="M1269.23,185.7c2.34-2.14,3.85-5.41,6.02-7.86,20.04-22.66,58.54-15.89,63.54,16.1,3.51,22.44-.96,50.94.63,74.22.39,5.64,2.04,12.69,7.18,15.86,2.28,1.4,4.81.78,6.46,2.97l-.78,1.3h-57.9c-.55-3.64,3.17-2.74,5.61-4.08,6.56-3.59,7.19-15.15,7.51-21.81.84-17.56.81-39.53,0-57.1-.45-9.78-2.09-24.23-13.12-27.72-13.49-4.26-23.77,10.14-25.14,21.99,1.07,22.11-1.45,45.59-.03,67.54.38,5.79,2.26,15.47,8.43,17.75,1.21.45,2.83.17,3.82.77s1.01,2.66.09,2.66h-56.07c-.52,0-1.11-1.33-.56-2.13.35-.51,4.54-1.36,6.02-2.36,5.68-3.82,6.53-13.53,6.87-19.83,2.4-44.77-1.37-92.14-.61-137.1-.6-4.39-1.89-7.5-5.44-10.27-1.2-.94-4.43-1.59-3.93-3.4.3-1.08,19.13-4.43,21.61-6.16,3.33-1.4,6.74-2.59,10.01-4.13,1.62-.76,7.34-4.44,8.05-4.56.67-.11,1.72.18,1.72.71v86.63Z"/>
  <path d="M507.63,288.3c-.86-.25-1.14-1.63-.26-2.35.76-.62,6.05-1.51,8.02-2.46,8.47-4.07,15.27-15.01,19.15-23.27,8.37-17.85,15.39-39.01,22.47-57.64,9.86-25.9,19.18-52.01,28.84-77.99l-2.43-10.79c5.29-5.73,11.28-10.79,15.76-17.23.89-1.28,3.31-7.02,4.84-6.66,6.8,14.24,11.96,29.29,17.85,43.95,17.79,44.26,35.71,88.48,53.77,132.64,3.01,6.3,7.96,14.42,14.6,17.35,3,1.33,8.83.63,7.33,4.45h-72.31l.51-2.37c5.91-1.15,10.51-2.95,12.33-9.15s-.41-10.7-2.35-16.5c-4.9-14.63-11.48-28.77-16.21-43.48-.47-.66-1.14-.67-1.85-.77-12.47-1.68-28.12,1.72-40.87-.52l-19.95,1.05-15.81,41.78c-2.66,7.38-3.18,19.48,4.07,24.42,3.07,2.09,6.88,1.77,9.4,4.23l-.78,1.3h-46.11ZM559.5,211.88h57.11l.71-1.22-28.49-78.87-29.92,78.5c-.41.57.09,1.46.58,1.59Z"/>
  <path class="cls-1" d="M1089.37,220.65l-82.62.69c1.12,12.84,5.76,26.6,13.38,37.06,15.23,20.94,43.57,25.05,61.52,5.04.87-.96,2.45-3.88,3.12-4.21,1.95-.97,3.13.25,2.35,2.35-1.33,3.59-10.43,13.51-13.62,16.23-22.5,19.17-62.23,16.47-81.97-5.5-20.74-23.07-19.99-60.7-.76-84.48,32.38-40.02,100.08-23.96,99.21,31.08,0,.6-.27,1.25-.62,1.73ZM1006.71,216.59h51.09c2.09-3.74,1.26-9.05.72-13.28-1.48-11.62-7.09-31.06-20.76-33.18-24.2-3.76-31.83,26.3-31.48,44.65.01.63.4,1.18.43,1.81Z"/>
  <path d="M749.44,190.94c1.76-1.05,1.92-3.57,2.86-5.26,13.22-23.76,43.66-29.95,58.33-4.34.19,2.25-13.99,16.41-15.83,19.58-.48.46-1.88.77-2.35.44-.27-.19-1.91-4.86-2.58-6.06-15.83-28.38-38.55-14.57-40.46,13.15,1.11,19.1-1.42,39.73.03,58.64.37,4.88,1.93,12.88,5.89,16.11,1.69,1.38,6.68,2.54,6.98,2.98.55.8-.04,2.13-.56,2.13h-56.85c-.54-3.53,2.27-2.55,4.15-3.45,7.95-3.8,8.57-14.1,8.97-21.92,1.01-19.76,1.15-46.3,0-66-.41-7.07-1.9-15.75-9.92-17.56v-1.72s39.74-12.13,39.74-12.13c.54-.25,1.6.96,1.6,1.08v24.34Z"/>
  <path class="cls-1" d="M1193.1,205.43c-.33.29-.75.45-1.16.57-7.34-10.64-12.51-25.24-24.2-32.23-11.01-6.59-22.39-4.22-29.93,6.01-17.92,24.34-5.89,76.49,20.38,91.46,17.15,9.77,38.17,4.73,49.44-11.25,5.75-1.93,1.03,4.77-.42,6.91-15.6,22.91-47.88,30.02-72.75,18.62-47.35-21.7-42.9-94.23,2.9-115.1,22.42-10.22,57.26-5.39,72.17,15.56l-16.43,19.44Z"/>
  <path d="M816.77,171.05c-1.13-.34-1.04-2.36-.04-3.18.82-.67,9.25-2.72,11.49-3.7,10.38-4.53,22.39-16.45,27.34-26.61,1.04-2.13,2.53-8.58,4.7-8.93,2.13.35.71,3.49.74,4.99.06,2.79.43,6.05.6,8.88l.04,23.77,24.24.22c2.29.24,2.6,3.23,1.11,4.56h-24.63l-.79.79v93.17c0,1.2,1.08,5.47,1.55,6.82,3.41,9.85,14.16,10.52,21.99,5.18,1.26-.86,7.23-7.93,7.36-3.12.04,1.46-6.38,7.71-7.84,8.92-14.51,12.01-42.99,10.97-51.45-7.77-1.1-2.44-3.05-8.58-3.05-11.08v-92.39c-.51.17-1.14-.52-1.31-.52-2.48,0-10.4.5-12.05,0Z"/>
  <path class="cls-1" d="M895.37,171.05c-1.33-.4-.96-2.53.29-3.38s5.14-1.2,7.05-1.85c12.8-4.35,25.74-15.83,31.79-27.92,1.06-2.13,2.72-8.93,4.88-9.27,1.26-.2,1.28,2.05,1.34,2.87.75,11.45-.65,23.44-.03,34.83h25.41c1.41,1.05,1.11,4.78-.64,5.17-.58.28-1.24-.46-1.45-.46h-23.32c-.52,5.11-.59,10.29-.55,15.46.16,19.09.14,38.39.57,57.54.28,12.63-4,38.66,16.44,35.83,4.58-.63,8.45-4.81,11.68-7.75l1.5.42c.54.48.9,1.01.69,1.77-.25.93-6.38,7.26-7.55,8.2-15.4,12.38-43.64,11.16-51.7-9.05-.66-1.65-2.52-8.05-2.52-9.52v-92.13l-.79-.79h-13.1Z"/>
</svg>